<?xml version="1.0" standalone="no"?>
<!DOCTYPE svg PUBLIC "-//W3C//DTD SVG 20010904//EN"
 "http://www.w3.org/TR/2001/REC-SVG-20010904/DTD/svg10.dtd">
<svg version="1.0" xmlns="http://www.w3.org/2000/svg"
 width="392.000000pt" height="392.000000pt" viewBox="0 0 392.000000 392.000000"
 preserveAspectRatio="xMidYMid meet">
<metadata>
Created by potrace 1.14, written by Peter Selinger 2001-2017
</metadata>
<g transform="translate(0.000000,392.000000) scale(0.100000,-0.100000)"
fill="#000000" stroke="none">
<path d="M1849 3896 c-2 -2 -49 -6 -104 -10 -85 -5 -133 -13 -255 -40 -102
-24 -203 -59 -335 -119 -285 -128 -515 -311 -739 -587 -90 -112 -272 -451
-290 -542 -2 -12 -12 -43 -20 -67 -9 -25 -19 -57 -21 -73 -3 -15 -12 -60 -20
-99 -27 -125 -28 -141 -30 -370 -3 -220 3 -284 39 -449 3 -14 7 -36 10 -49 3
-13 11 -40 18 -60 7 -20 12 -39 13 -43 0 -3 3 -10 7 -14 5 -4 8 -15 8 -25 0
-53 216 -463 252 -477 4 -2 8 -8 8 -14 0 -15 132 -170 210 -246 150 -149 284
-244 490 -350 166 -86 435 -174 575 -187 28 -3 84 -8 125 -12 132 -12 328 -7
460 13 195 30 449 119 639 225 52 29 201 127 211 138 3 3 30 25 60 48 60 46
235 222 290 292 60 75 169 242 206 315 53 104 113 244 107 250 -3 3 -1 12 5
19 13 16 68 221 77 288 4 24 8 58 10 74 3 17 7 96 11 176 6 130 1 217 -21 400
-6 45 -55 240 -70 275 -8 19 -12 34 -10 34 6 0 -60 151 -104 240 -161 318
-438 611 -751 792 -118 68 -277 143 -325 153 -11 2 -40 11 -64 19 -76 28 -222
59 -331 71 -58 7 -336 16 -341 11z"/>
</g>
</svg>
